<svg xmlns="http://www.w3.org/2000/svg" xmlns:xlink="http://www.w3.org/1999/xlink" aria-hidden="true" focusable="false" width="1em" height="1em" style="-ms-transform: rotate(360deg); -webkit-transform: rotate(360deg); transform: rotate(360deg);" preserveAspectRatio="xMidYMid meet" viewBox="0 0 24 24"><path d="M13.543 14l.506 1.386c.17.466.734.722 1.26.57c.525-.15.813-.651.643-1.117l-2.05-5.61c-.197-.542-.675-.967-1.285-1.142c-1.05-.302-2.179.209-2.52 1.141l-2.047 5.61c-.17.467.118.967.643 1.119c.525.15 1.09-.105 1.26-.571L10.458 14h3.085zm-.73-2h-1.625L12 9.776L12.813 12zM8 6h8a2 2 0 0 1 2 2v8a2 2 0 0 1-2 2H8a2 2 0 0 1-2-2V8a2 2 0 0 1 2-2z" fill="#000"/></svg>
