<svg xmlns="http://www.w3.org/2000/svg" xmlns:xlink="http://www.w3.org/1999/xlink" aria-hidden="true" focusable="false" width="1em" height="1em" style="-ms-transform: rotate(360deg); -webkit-transform: rotate(360deg); transform: rotate(360deg);" preserveAspectRatio="xMidYMid meet" viewBox="0 0 24 24"><path d="M16.5 9.5A3.5 3.5 0 0 0 13 6H8.5a1 1 0 0 0-1 1v10a1 1 0 0 0 1 1H13a3.49 3.49 0 0 0 2.44-6a3.5 3.5 0 0 0 1.06-2.5zM13 16H9.5v-3H13a1.5 1.5 0 0 1 0 3zm0-5H9.5V8H13a1.5 1.5 0 0 1 0 3z" fill="#000"/></svg>
