<svg xmlns="http://www.w3.org/2000/svg" xmlns:xlink="http://www.w3.org/1999/xlink" aria-hidden="true" focusable="false" width="1em" height="1em" style="-ms-transform: rotate(360deg); -webkit-transform: rotate(360deg); transform: rotate(360deg);" preserveAspectRatio="xMidYMid meet" viewBox="0 0 24 24"><path d="M5 18h4.24a1 1 0 0 0 .71-.29l6.92-6.93L19.71 8a1 1 0 0 0 0-1.42l-4.24-4.29a1 1 0 0 0-1.42 0l-2.82 2.83l-6.94 6.93a1 1 0 0 0-.29.71V17a1 1 0 0 0 1 1zm9.76-13.59l2.83 2.83l-1.42 1.42l-2.83-2.83zM6 13.17l5.93-5.93l2.83 2.83L8.83 16H6zM21 20H3a1 1 0 0 0 0 2h18a1 1 0 0 0 0-2z" fill="#000"/></svg>
