<svg
  xmlns="http://www.w3.org/2000/svg"
  xmlns:inkscape="http://www.inkscape.org/namespaces/inkscape"
  viewBox="0 -256 1792 1792"
  >
  <g transform="matrix(1,0,0,-1,242.98305,1285.4237)">
    <path
      d="m 1024,352 v -64 q 0,-14 -9,-23 -9,-9 -23,-9 H 288 q -14,0 -23,9 -9,9 -9,23 v 64 q 0,14 9,23 9,9 23,9 h 704 q 14,0 23,-9 9,-9 9,-23 z m 0,256 v -64 q 0,-14 -9,-23 -9,-9 -23,-9 H 288 q -14,0 -23,9 -9,9 -9,23 v 64 q 0,14 9,23 9,9 23,9 h 704 q 14,0 23,-9 9,-9 9,-23 z M 128,0 H 1152 V 768 H 736 q -40,0 -68,28 -28,28 -28,68 v 416 H 128 V 0 z m 640,896 h 299 L 768,1195 V 896 z M 1280,768 V -32 q 0,-40 -28,-68 -28,-28 -68,-28 H 96 q -40,0 -68,28 -28,28 -28,68 v 1344 q 0,40 28,68 28,28 68,28 h 544 q 40,0 88,-20 48,-20 76,-48 l 408,-408 q 28,-28 48,-76 20,-48 20,-88 z"
      fill="#88c8ff"/>
  </g>
</svg>
