<svg xmlns="http://www.w3.org/2000/svg" xmlns:xlink="http://www.w3.org/1999/xlink" aria-hidden="true" focusable="false" width="1em" height="1em" style="-ms-transform: rotate(360deg); -webkit-transform: rotate(360deg); transform: rotate(360deg);" preserveAspectRatio="xMidYMid meet" viewBox="0 0 24 24"><path d="M21 11H9.41l2.3-2.29a1 1 0 1 0-1.42-1.42l-4 4a1 1 0 0 0-.21.33a1 1 0 0 0 0 .76a1 1 0 0 0 .21.33l4 4a1 1 0 0 0 1.42 0a1 1 0 0 0 0-1.42L9.41 13H21a1 1 0 0 0 0-2zM3 3a1 1 0 0 0-1 1v16a1 1 0 0 0 2 0V4a1 1 0 0 0-1-1z" fill="#000"/></svg>
