<svg xmlns="http://www.w3.org/2000/svg" xmlns:xlink="http://www.w3.org/1999/xlink" aria-hidden="true" focusable="false" width="1em" height="1em" style="-ms-transform: rotate(360deg); -webkit-transform: rotate(360deg); transform: rotate(360deg);" preserveAspectRatio="xMidYMid meet" viewBox="0 0 24 24"><path d="M12 15a4 4 0 0 0 4-4V5a4 4 0 0 0-8 0v6a4 4 0 0 0 4 4zM10 5a2 2 0 0 1 4 0v6a2 2 0 0 1-4 0zm10 6a1 1 0 0 0-2 0a6 6 0 0 1-12 0a1 1 0 0 0-2 0a8 8 0 0 0 7 7.93V21H9a1 1 0 0 0 0 2h6a1 1 0 0 0 0-2h-2v-2.07A8 8 0 0 0 20 11z" fill="#000"/></svg>
