<svg xmlns="http://www.w3.org/2000/svg" xmlns:xlink="http://www.w3.org/1999/xlink" aria-hidden="true" focusable="false" width="1em" height="1em" style="-ms-transform: rotate(360deg); -webkit-transform: rotate(360deg); transform: rotate(360deg);" preserveAspectRatio="xMidYMid meet" viewBox="0 0 24 24"><path d="M13 20H6a1 1 0 0 1-1-1V5a1 1 0 0 1 1-1h5v3a3 3 0 0 0 3 3h3v2a1 1 0 0 0 2 0V9v-.06a1.31 1.31 0 0 0-.06-.27v-.09a1.07 1.07 0 0 0-.19-.28l-6-6a1.07 1.07 0 0 0-.28-.19a.32.32 0 0 0-.09 0a.88.88 0 0 0-.33-.11H6a3 3 0 0 0-3 3v14a3 3 0 0 0 3 3h7a1 1 0 0 0 0-2zm0-14.59L15.59 8H14a1 1 0 0 1-1-1zM8 8a1 1 0 0 0 0 2h1a1 1 0 0 0 0-2zm6 4H8a1 1 0 0 0 0 2h6a1 1 0 0 0 0-2zm6.71 5.29l-2-2a1 1 0 0 0-.33-.21a1 1 0 0 0-.76 0a1 1 0 0 0-.33.21l-2 2a1 1 0 0 0 1.42 1.42l.29-.3V21a1 1 0 0 0 2 0v-2.59l.29.3a1 1 0 0 0 1.42 0a1 1 0 0 0 0-1.42zM12 18a1 1 0 0 0 0-2H8a1 1 0 0 0 0 2z" fill="#fff"/></svg>
